<svg id="Layer_1" data-name="Layer 1" xmlns="http://www.w3.org/2000/svg" viewBox="0 0 246.85 28.13"><title>FH-logo</title><path d="M182.54,105.71v-2.29H166.91v2.29h-9.07v11h9.07v14.87h15.63V116.67h8.82v-11ZM173,108.13c.39.23,1.27,1.13,2.06,1.67a18.82,18.82,0,0,0,1.8,1.09c.67.38,1,.58,1.12.67s.42.29.11.44a2.51,2.51,0,0,1-2.15-.58c-.38-.27-.76-.63-1.07-.83s-.58-.13-.42.19a4.66,4.66,0,0,0,.5.75,42.55,42.55,0,0,0,2.82,3.2l.81.82c.27.29-.25.74-.64.41s-.78-.69-.9-.82c-.58-.59-1.17-1.24-1.72-1.86l-.58-.66c-.23-.25-.37,0-.24.1s.39.47.44.53l1.82,2.1.7.77c.21.26-.29.63-.59.41a4.38,4.38,0,0,1-.67-.61q-1-1.14-2.07-2.31c-.12-.14-.52-.59-.61-.68s-.33,0-.21.13a6.73,6.73,0,0,0,.58.74c.57.66,1.06,1.19,1.63,1.85l.46.55c.34.39-.31.66-.73.28-.23-.21-.51-.46-.64-.6-.73-.79-1.2-1.36-1.87-2.13-.05-.06-.23-.31-.37-.48s-.36,0-.26.11.38.52.51.69c.66.84,1.67,1.89,1.82,2.07s-.23.34-.52.18a5.69,5.69,0,0,1-.6-.4,11.22,11.22,0,0,1-2.39-2.68,17.4,17.4,0,0,1-1.54-2.77,3.92,3.92,0,0,1-.2-.94c0-.19-.09-.31-.25-.07a1.3,1.3,0,0,0,0,.87,2.66,2.66,0,0,0,.12.37c0,.13-.1.15-.18.08a2.89,2.89,0,0,0-.27-.24l-1.83-1.89c-.21-.23-.25-.37.27-.38,1.09,0,3.54-.26,3.54-.26,1.07-.15,1.56-.39,2.42.12m-3.81-2s2-.32,1.7,1.14c0,.17-.1.22-.39.27,0,0-1.27.13-2.45.2-1,.07-1.58.09-1.93.09s-.5.19-.35.38l.39.43,1.49,1.59.58.6c.12.13.18.23,0,.28l-.77.15c-3.09.57-4.38.26-5,.1a.4.4,0,0,1-.2-.6,8.14,8.14,0,0,1,6.93-4.63m10.3,22.44h-9.61v-3.75a1.67,1.67,0,0,0,1,.42,19.34,19.34,0,0,0,5.88-.63c.1,0,.23-.06.44.14l2.27,2.24Zm1.45-4.7c-.09.25-.18.48-.26.69-.24.62-.41,1-.53,1.25a5.87,5.87,0,0,1-.29.57c-.06.11-.18.07-.27,0a4.81,4.81,0,0,1-1.58-1.62.13.13,0,0,1,.1-.19,27.9,27.9,0,0,1,2.77-.82c.07,0,.09,0,.06.1m.14-.92a7.9,7.9,0,0,1-3,1.09.05.05,0,0,1,0-.09c.12-.18.62-.58.56-.66s-.69.12-.85.18a18.56,18.56,0,0,1-3.72,1.07c-.9.13-2.06.25-2.83.29-.15,0-.76,0-.82-.25s.38-.34.72-.4l2-.39a1.77,1.77,0,0,0,.6-.19c.09-.12,0-.23-.19-.19l-.43.08-2.42.46a4.94,4.94,0,0,1-1.57.13c-.33,0-.41-.43,0-.54s.61-.15,1-.22l2.39-.45a1.67,1.67,0,0,0,.49-.16c.17-.12,0-.27-.15-.23l-.49.1-2.51.47a9.47,9.47,0,0,1-1.07.15,1.1,1.1,0,0,1-.6-.07.25.25,0,0,1,0-.43,8.57,8.57,0,0,1,1.45-.32c1-.17,1.51-.28,2.31-.44a2.22,2.22,0,0,0,.68-.19c.12-.11,0-.26-.15-.23l-.56.1-2.27.44a3.33,3.33,0,0,1-1.75,0c-.21-.1-.29-.42,0-.46.59-.11,2.16-.36,3.66-.64s3-.53,3-.81-1.15-.26-2-.45-1.63-.64-1.63-1c0-.07.11-.17.29-.15a32.36,32.36,0,0,0,4.41.7c1,.07,1.76,0,2.25.42.07.06.92.9,1.19,1.15.67.63,1.26,1.11,2,1.79.19.17.27.21.23.37m.46-.88c-.26.18-.26.14-.49,0a9.22,9.22,0,0,1-1.81-1.69c-.08-.17-.05-.23.22-.17.57.11,2.07.36,2.41,1.12.09.19-.05.53-.33.75m6.7-8.31h-8.75v6.12c-.29-.06-.66-.07-.81-.11-.31-.09-.2-.41-1.12-.75a6.07,6.07,0,0,0-2-.17,14.67,14.67,0,0,1-3.08-.34c-.66-.17-2.1-.63-2.23,0s.37.84.66,1a5.9,5.9,0,0,0,1.72.6c.4.09.2.18,0,.24-.42.1-2,.37-2.77.49v-7.1h-9v-5.06H163c-1.8,2.06-1.89,3-1.29,3.13a12,12,0,0,0,3.49.19,21.11,21.11,0,0,0,3.5-.57c.6-.18.72.14.75.17a14.55,14.55,0,0,0,3.38,4.33,3.38,3.38,0,0,0,2,1c1.9.3,3.73-.26,4.14-1.09.21-.43-.14-.67-.4-1-.84-.88-1.74-1.84-2.61-2.77-.12-.13,0-.23.17-.11a2.43,2.43,0,0,0,1.83.52c.54,0,.83-.33.83-.63,0-.47-.85-.88-1.24-1.13a18.56,18.56,0,0,1-3-2.08h13.73Z" transform="translate(-157.84 -103.42)" style="fill:#574319"/><path d="M203.1,108.69v5.09h7.13v2.89H203.1v8.11h-3.86V110.07c0-2.1-.19-3.44-1.53-3.94v-.46H210.5v3Z" transform="translate(-157.84 -103.42)" style="fill:#574319"/><path d="M222,115.17c-.18-.26-.71-1-2.43-1-2,.08-3.07,2-3.07,4.2v6.36H213v-9.9c0-1.45-.27-2.65-1.34-2.92v-.41h4.49l.08,2.21a3.73,3.73,0,0,1,3.36-2.49,3.28,3.28,0,0,1,2.43.85Z" transform="translate(-157.84 -103.42)" style="fill:#574319"/><path d="M235.55,124.37a4.89,4.89,0,0,1-2.41.68h-.08l-.11,0a2,2,0,0,1-2.07-1.36,4.55,4.55,0,0,1-3.28,1.39c-2.14,0-4.08-1.26-4.08-3.55s1.72-3.64,4.21-4.38a23.28,23.28,0,0,1,2.76-.6v-.38c0-1.37-.65-2.08-1.94-2.08a5.54,5.54,0,0,0-4.21,2V113a7.22,7.22,0,0,1,4.7-1.7,5.23,5.23,0,0,1,3.69,1.26,4.36,4.36,0,0,1,1.26,3.23V122c0,.38.14.55.33.6a.61.61,0,0,0,.25.06,2.07,2.07,0,0,0,1-.36Zm-5.08-5.77c-2.36.33-3.64,1.12-3.61,2.46v0c0,.85.74,1.45,1.8,1.45h.08a2.17,2.17,0,0,0,1.73-.87Z" transform="translate(-157.84 -103.42)" style="fill:#574319"/><path d="M246.17,124.78v-8.37c0-1-.32-2.4-2.13-2.4a3.29,3.29,0,0,0-2.84,1.83v8.94h-3.5v-9.87c0-1.45-.27-2.65-1.34-2.92v-.42h4.57l0,1.53a4.81,4.81,0,0,1,4.05-1.83c2.4,0,4.64,1.34,4.64,5.14v8.37Z" transform="translate(-157.84 -103.42)" style="fill:#574319"/><path d="M259.25,125.1a6.95,6.95,0,1,1,3.75-13v3.12a4.91,4.91,0,0,0-3.42-1.15,4.09,4.09,0,0,0,0,8.17,5.05,5.05,0,0,0,3.42-1.15v3.09a6.62,6.62,0,0,1-3.75.9" transform="translate(-157.84 -103.42)" style="fill:#574319"/><path d="M266.34,124.78v-9.87c0-1.48-.28-2.68-1.34-2.93v-.41h4.84v13.21Zm1.61-15a2,2,0,1,1,2-1.94,2,2,0,0,1-2,1.94" transform="translate(-157.84 -103.42)" style="fill:#574319"/><path d="M281.63,120.81V121c-.06,3.28-3.17,4.15-5.28,4.15a7.41,7.41,0,0,1-3.94-1v-3.31a5.71,5.71,0,0,0,4,1.56c1.15,0,1.86-.44,1.86-1.23a1.74,1.74,0,0,0-1.18-1.42l-2.18-1a4,4,0,0,1-2.55-3.59c0-.16,0-.32,0-.49.28-2.35,2.65-3.41,4.76-3.41a7,7,0,0,1,3.85,1v3.12a5.49,5.49,0,0,0-3.64-1.34c-.68,0-1.47.25-1.52.85v.11c0,.41.24.79.9,1.09l2.21,1a3.9,3.9,0,0,1,2.63,3.72Z" transform="translate(-157.84 -103.42)" style="fill:#574319"/><path d="M290.44,125.1a6.95,6.95,0,1,1,3.74-13v3.12a4.89,4.89,0,0,0-3.42-1.15,4.09,4.09,0,0,0,0,8.17,5,5,0,0,0,3.42-1.15v3.09a6.58,6.58,0,0,1-3.74.9" transform="translate(-157.84 -103.42)" style="fill:#574319"/><path d="M308.13,124.37a4.89,4.89,0,0,1-2.4.68h-.09l-.11,0a2,2,0,0,1-2.07-1.36,4.55,4.55,0,0,1-3.28,1.39c-2.13,0-4.08-1.26-4.08-3.55s1.72-3.64,4.21-4.38a23.28,23.28,0,0,1,2.76-.6v-.38c0-1.37-.65-2.08-1.94-2.08a5.54,5.54,0,0,0-4.21,2V113a7.22,7.22,0,0,1,4.7-1.7,5.28,5.28,0,0,1,3.7,1.26,4.39,4.39,0,0,1,1.25,3.23V122c0,.38.14.55.33.6a.61.61,0,0,0,.25.06,2.07,2.07,0,0,0,1-.36Zm-5.08-5.77c-2.35.33-3.64,1.12-3.61,2.46v0c0,.85.74,1.45,1.8,1.45h.08a2.17,2.17,0,0,0,1.73-.87Z" transform="translate(-157.84 -103.42)" style="fill:#574319"/><path d="M318.75,124.78v-8.37c0-1-.32-2.4-2.13-2.4a3.29,3.29,0,0,0-2.84,1.83v8.94h-3.5v-9.87c0-1.45-.27-2.65-1.34-2.92v-.42h4.57l.05,1.53a4.81,4.81,0,0,1,4.05-1.83c2.4,0,4.64,1.34,4.64,5.14v8.37Z" transform="translate(-157.84 -103.42)" style="fill:#574319"/><path d="M343.63,124.77h-2.09v-6H334.3v6h-2.08V114.38a8.07,8.07,0,0,0-.14-1.8,1.29,1.29,0,0,0-.82-1v-.21h3v5.8h7.24v-5.8h2.09Z" transform="translate(-157.84 -103.42)" style="fill:#5091cd"/><path d="M355.25,124.77h-8.07V114.38a8.23,8.23,0,0,0-.13-1.8,1.28,1.28,0,0,0-.8-1v-.19h8.83V113h-5.81v4.22h5.6v1.53h-5.6v4.44h6Z" transform="translate(-157.84 -103.42)" style="fill:#5091cd"/><path d="M370.46,124.77h-2.13l-1.81-4h-5.64l-1.71,4h-1.83L363,111.42h1.51Zm-4.64-5.56-1.61-3.64a10,10,0,0,1-.61-1.61,13.42,13.42,0,0,1-.55,1.6l-1.49,3.65Z" transform="translate(-157.84 -103.42)" style="fill:#5091cd"/><path d="M380.24,124.77h-7.72V114.38a8.07,8.07,0,0,0-.14-1.8,1.28,1.28,0,0,0-.82-1v-.19h3v11.77h5.64Z" transform="translate(-157.84 -103.42)" style="fill:#5091cd"/><path d="M390.35,113h-4.3v11.77h-2.12V113h-4.32v-1.58h10.74Z" transform="translate(-157.84 -103.42)" style="fill:#5091cd"/><path d="M404.7,124.77h-2.09v-6h-7.24v6h-2.08V114.38a8.07,8.07,0,0,0-.14-1.8,1.29,1.29,0,0,0-.82-1v-.21h3v5.8h7.24v-5.8h2.09Z" transform="translate(-157.84 -103.42)" style="fill:#5091cd"/></svg>