<?xml version="1.0" encoding="utf-8"?>
<!-- Generator: Adobe Illustrator 22.1.0, SVG Export Plug-In . SVG Version: 6.00 Build 0)  -->
<svg version="1.1" id="Livello_1" xmlns="http://www.w3.org/2000/svg" xmlns:xlink="http://www.w3.org/1999/xlink" x="0px" y="0px"
	 viewBox="0 0 141.7 141.7" style="enable-background:new 0 0 141.7 141.7;" xml:space="preserve">
<style type="text/css">
	.st0{fill:#6A6E7C;}
</style>
<g id="Livello_5">
	<path class="st0" d="M113.3,70.2c0-3-2.4-5.4-5.3-5.4H75.5V32.4v0c0-3-2.4-5.4-5.4-5.4c-3,0-5.4,2.4-5.4,5.4v37.8
		c0,3,2.4,5.4,5.4,5.4H108C110.9,75.6,113.3,73.2,113.3,70.2 M129.5,70.2c0,32.8-26.6,59.4-59.4,59.4c-32.8,0-59.4-26.6-59.4-59.4
		s26.6-59.4,59.4-59.4C102.9,10.8,129.5,37.4,129.5,70.2 M140.3,70.2C140.3,31.4,108.9,0,70.2,0C31.4,0,0,31.4,0,70.2
		s31.4,70.2,70.2,70.2C108.9,140.3,140.3,108.9,140.3,70.2"/>
</g>
<g id="Livello_1_1_">
</g>
</svg>
