<?xml version="1.0" encoding="utf-8"?>
<!-- Generator: Adobe Illustrator 22.1.0, SVG Export Plug-In . SVG Version: 6.00 Build 0)  -->
<svg version="1.1" id="Layer_1" xmlns="http://www.w3.org/2000/svg" xmlns:xlink="http://www.w3.org/1999/xlink" x="0px" y="0px"
	 viewBox="0 0 24 24" style="enable-background:new 0 0 24 24;" xml:space="preserve">
<style type="text/css">
	.st0{fill:#6A6E7C;}
</style>
<g>
	<path class="st0" d="M23,8h-4V1c0-0.6-0.7-1-1.2-1h-12C5.2,0,5,0.4,5,1v7H1C0.4,8,0,8.4,0,9v15h24V9C24,8.4,23.6,8,23,8z M14,22h-4
		v-4h4V22z M22,22h-7v-5H9v5H2V10h5V2h10v8h5V22z"/>
	<rect x="13" y="13" class="st0" width="2" height="2"/>
	<rect x="9" y="13" class="st0" width="2" height="2"/>
	<rect x="5" y="13" class="st0" width="2" height="2"/>
	<rect x="17" y="13" class="st0" width="2" height="2"/>
	<rect x="17" y="17" class="st0" width="2" height="2"/>
	<rect x="5" y="17" class="st0" width="2" height="2"/>
	<polygon class="st0" points="13,4 11,4 11,6 9,6 9,8 11,8 11,10 13,10 13,8 15,8 15,6 13,6 	"/>
</g>
</svg>
