<?xml version="1.0" encoding="utf-8"?>
<!-- Generator: Adobe Illustrator 22.1.0, SVG Export Plug-In . SVG Version: 6.00 Build 0)  -->
<svg version="1.1" id="Layer_1" xmlns:sketch="http://www.bohemiancoding.com/sketch/ns"
	 xmlns="http://www.w3.org/2000/svg" xmlns:xlink="http://www.w3.org/1999/xlink" x="0px" y="0px" viewBox="0 0 24 24"
	 style="enable-background:new 0 0 24 24;" xml:space="preserve">
<style type="text/css">
	.st0{fill:#6A6E7C;}
	.st1{fill:#FFFFFF;}
</style>
<title></title>
<desc></desc>
<g id="slice" transform="translate(215.000000, 119.000000)">
</g>
<polygon class="st0" points="13.9,4 13.9,3 9,3 9,4 "/>
<path class="st0" d="M5,4l0-1H1.6C1.3,3,1,3.3,1,3.6v17.7C1,21.7,1.3,22,1.6,22h19.7c0.3,0,0.6-0.3,0.6-0.6V3.6
	C22,3.3,21.7,3,21.4,3H18l0,1h3v5H2V4H5z"/>
<path class="st1" d="M2,18v2.6C2,20.8,2.2,21,2.4,21H5v-3H2L2,18z"/>
<polygon class="st1" points="6,18 6,21 9,21 9,18 6,18 "/>
<polygon class="st1" points="10,18 10,21 13,21 13,18 10,18 "/>
<polygon class="st1" points="14,18 14,21 17,21 17,18 14,18 "/>
<path class="st1" d="M18,18v3h2.6c0.2,0,0.4-0.2,0.4-0.4V18H18L18,18z"/>
<polygon class="st1" points="2,14 2,17 5,17 5,14 2,14 "/>
<polygon class="st1" points="6,14 6,17 9,17 9,14 6,14 "/>
<polygon class="st1" points="14,14 14,17 17,17 17,14 14,14 "/>
<polygon class="st1" points="18,14 18,17 21,17 21,14 18,14 "/>
<polygon class="st1" points="2,10 2,13 5,13 5,10 2,10 "/>
<polygon class="st1" points="6,10 6,13 9,13 9,10 6,10 "/>
<polygon class="st1" points="10,10 10,13 13,13 13,10 10,10 "/>
<polygon class="st1" points="14,10 14,13 17,13 17,10 14,10 "/>
<polygon class="st1" points="18,10 18,13 21,13 21,10 18,10 "/>
<path class="st0" d="M6.8,1C6.3,1,6,1.3,6,1.8v2.5C6,4.7,6.3,5,6.8,5h0.5C7.7,5,8,4.7,8,4.2V1.8C8,1.3,7.7,1,7.2,1H6.8L6.8,1z"/>
<path class="st0" d="M16,1c-0.6,0-1,0.4-1,1v2c0,0.6,0.4,1,1,1c0.6,0,1-0.4,1-1V2C17,1.4,16.6,1,16,1L16,1z"/>
</svg>
