<?xml version="1.0" encoding="utf-8"?>
<!-- Generator: Adobe Illustrator 23.0.3, SVG Export Plug-In . SVG Version: 6.00 Build 0)  -->
<svg version="1.1" id="Layer_1" xmlns="http://www.w3.org/2000/svg" xmlns:xlink="http://www.w3.org/1999/xlink" x="0px" y="0px"
	 viewBox="0 0 15 15" style="enable-background:new 0 0 15 15;" xml:space="preserve">
<path d="M14.6,4.7H0.4C0.2,4.7,0,4.5,0,4.3V3.3c0-0.8,0.7-1.4,1.6-1.4h1.6V0.4C3.2,0.2,3.4,0,3.6,0H5c0.2,0,0.4,0.2,0.4,0.4v1.5h4.3
	V0.4C9.6,0.2,9.8,0,10,0h1.3c0.2,0,0.4,0.2,0.4,0.4v1.5h1.6c0.9,0,1.6,0.6,1.6,1.4v1.1C15,4.5,14.8,4.7,14.6,4.7z M0.4,5.6h14.2
	C14.8,5.6,15,5.8,15,6v7.6c0,0.8-0.7,1.4-1.6,1.4H1.6C0.7,15,0,14.4,0,13.6V6C0,5.8,0.2,5.6,0.4,5.6z M4.3,11.6
	c0-0.2-0.2-0.4-0.4-0.4H2.5c-0.2,0-0.4,0.2-0.4,0.4v1.2c0,0.2,0.2,0.4,0.4,0.4h1.3c0.2,0,0.4-0.2,0.4-0.4V11.6z M4.3,7.9
	c0-0.2-0.2-0.4-0.4-0.4H2.5c-0.2,0-0.4,0.2-0.4,0.4V9c0,0.2,0.2,0.4,0.4,0.4h1.3c0.2,0,0.4-0.2,0.4-0.4V7.9z M8.6,11.6
	c0-0.2-0.2-0.4-0.4-0.4H6.8c-0.2,0-0.4,0.2-0.4,0.4v1.2c0,0.2,0.2,0.4,0.4,0.4h1.3c0.2,0,0.4-0.2,0.4-0.4V11.6z M8.6,7.9
	c0-0.2-0.2-0.4-0.4-0.4H6.8c-0.2,0-0.4,0.2-0.4,0.4V9c0,0.2,0.2,0.4,0.4,0.4h1.3c0.2,0,0.4-0.2,0.4-0.4V7.9z M12.9,11.6
	c0-0.2-0.2-0.4-0.4-0.4h-1.3c-0.2,0-0.4,0.2-0.4,0.4v1.2c0,0.2,0.2,0.4,0.4,0.4h1.3c0.2,0,0.4-0.2,0.4-0.4V11.6z M12.9,7.9
	c0-0.2-0.2-0.4-0.4-0.4h-1.3c-0.2,0-0.4,0.2-0.4,0.4V9c0,0.2,0.2,0.4,0.4,0.4h1.3c0.2,0,0.4-0.2,0.4-0.4V7.9z"/>
</svg>
