<?xml version="1.0" encoding="utf-8"?>
<!-- Generator: Adobe Illustrator 23.0.3, SVG Export Plug-In . SVG Version: 6.00 Build 0)  -->
<!DOCTYPE svg PUBLIC "-//W3C//DTD SVG 1.1//EN" "http://www.w3.org/Graphics/SVG/1.1/DTD/svg11.dtd">
<svg version="1.1" id="Layer_1" xmlns="http://www.w3.org/2000/svg" xmlns:xlink="http://www.w3.org/1999/xlink" x="0px" y="0px"
	 width="15.6px" height="15.6px" viewBox="0 0 15.6 15.6" style="enable-background:new 0 0 15.6 15.6;" xml:space="preserve">
<path d="M14.9,5H0.7C0.5,5,0.3,4.8,0.3,4.6v-1c0-0.8,0.7-1.4,1.6-1.4h1.6V0.7c0-0.2,0.2-0.4,0.4-0.4h1.4c0.2,0,0.4,0.2,0.4,0.4v1.5
	H10V0.7c-0.1-0.2,0.1-0.4,0.3-0.4h1.3c0.2,0,0.4,0.2,0.4,0.4v1.5h1.6c0.9,0,1.6,0.6,1.6,1.4v1.1C15.3,4.8,15.1,5,14.9,5z M0.7,5.9
	h14.2c0.2,0,0.4,0.2,0.4,0.4v7.6c0,0.8-0.7,1.4-1.6,1.4H1.9c-0.9,0-1.6-0.6-1.6-1.4V6.3C0.3,6.1,0.5,5.9,0.7,5.9z M4.6,11.9
	c0-0.2-0.2-0.4-0.4-0.4H2.8c-0.2,0-0.4,0.2-0.4,0.4v1.2c0,0.2,0.2,0.4,0.4,0.4h1.3c0.2,0,0.4-0.2,0.4-0.4v-1.2H4.6z M4.6,8.2
	c0-0.2-0.2-0.4-0.4-0.4H2.8C2.6,7.8,2.4,8,2.4,8.2v1.1c0,0.2,0.2,0.4,0.4,0.4h1.3c0.2,0,0.4-0.2,0.4-0.4V8.2H4.6z M8.9,11.9
	c0-0.2-0.2-0.4-0.4-0.4H7.1c-0.2,0-0.4,0.2-0.4,0.4v1.2c0,0.2,0.2,0.4,0.4,0.4h1.3c0.2,0,0.4-0.2,0.4-0.4v-1.2H8.9z M8.9,8.2
	c0-0.2-0.2-0.4-0.4-0.4H7.1C6.9,7.8,6.7,8,6.7,8.2v1.1c0,0.2,0.2,0.4,0.4,0.4h1.3c0.2,0,0.4-0.2,0.4-0.4V8.2H8.9z M13.2,11.9
	c0-0.2-0.2-0.4-0.4-0.4h-1.3c-0.2,0-0.4,0.2-0.4,0.4v1.2c0,0.2,0.2,0.4,0.4,0.4h1.3c0.2,0,0.4-0.2,0.4-0.4V11.9z M13.2,8.2
	c0-0.2-0.2-0.4-0.4-0.4h-1.3c-0.2,0-0.4,0.2-0.4,0.4v1.1c0,0.2,0.2,0.4,0.4,0.4h1.3c0.2,0,0.4-0.2,0.4-0.4V8.2z"/>
</svg>
