<?xml version="1.0" encoding="utf-8"?>
<!-- Generator: Adobe Illustrator 23.0.3, SVG Export Plug-In . SVG Version: 6.00 Build 0)  -->
<!DOCTYPE svg PUBLIC "-//W3C//DTD SVG 1.1//EN" "http://www.w3.org/Graphics/SVG/1.1/DTD/svg11.dtd">
<svg version="1.1" id="Layer_1" xmlns="http://www.w3.org/2000/svg" xmlns:xlink="http://www.w3.org/1999/xlink" x="0px" y="0px"
	 width="15.6px" height="15.6px" viewBox="0 0 15.6 15.6" style="enable-background:new 0 0 15.6 15.6;" xml:space="preserve">
<path d="M7.8,0.3c-4.1,0-7.5,3.4-7.5,7.5s3.4,7.5,7.5,7.5s7.5-3.4,7.5-7.5S11.9,0.3,7.8,0.3z M9.5,10.9l-2.6-2
	c-0.1,0-0.2-0.1-0.2-0.2V3.6c0-0.2,0.2-0.4,0.4-0.4h1.5C8.8,3.2,9,3.4,9,3.6v4.2l1.9,1.4c0.2,0.1,0.2,0.3,0.1,0.5l-0.9,1.2
	C9.9,11,9.7,11,9.5,10.9L9.5,10.9z"/>
</svg>
