<?xml version="1.0" encoding="utf-8"?>
<!-- Generator: Adobe Illustrator 23.0.3, SVG Export Plug-In . SVG Version: 6.00 Build 0)  -->
<svg version="1.1" id="Layer_1" xmlns="http://www.w3.org/2000/svg" xmlns:xlink="http://www.w3.org/1999/xlink" x="0px" y="0px"
	 viewBox="0 0 15 15" style="enable-background:new 0 0 15 15;" xml:space="preserve">
<path d="M7.5,0C3.4,0,0,3.4,0,7.5S3.4,15,7.5,15S15,11.6,15,7.5S11.6,0,7.5,0z M9.2,10.6L6.6,8.6C6.5,8.6,6.4,8.5,6.4,8.4V3.3
	c0-0.2,0.2-0.4,0.4-0.4h1.5c0.2,0,0.4,0.2,0.4,0.4v4.2l1.9,1.4c0.2,0.1,0.2,0.3,0.1,0.5l-0.9,1.2C9.6,10.7,9.4,10.7,9.2,10.6
	L9.2,10.6z"/>
</svg>
