<?xml version="1.0" encoding="utf-8"?>
<!-- Generator: Adobe Illustrator 23.0.2, SVG Export Plug-In . SVG Version: 6.00 Build 0)  -->
<svg version="1.1" id="Layer_1" xmlns="http://www.w3.org/2000/svg" xmlns:xlink="http://www.w3.org/1999/xlink" x="0px" y="0px"
	 viewBox="0 0 253.3 48.9" style="enable-background:new 0 0 253.3 48.9;" xml:space="preserve">
<style type="text/css">
	.st0{fill:#5091CD;}
	.st1{fill:#574319;}
</style>
<g>
	<path class="st0" d="M43.4,39.1c0-4.1,3.1-6.6,6.7-6.6c1.6,0,3.3,0.5,4.4,1.3v1.7c-1-0.9-2.4-1.7-4.4-1.7c-2.9,0-5,2-5,5.2
		c0,3.1,2.1,5.2,5,5.2c2,0,3.3-0.7,4.4-1.7v1.7c-1,0.8-2.8,1.3-4.4,1.3C46.5,45.6,43.4,43.1,43.4,39.1z"/>
	<path class="st0" d="M61,32.8h1.1l5.4,12.6h-1.7l-1.5-3.5h-5.5l-1.5,3.5h-1.6L61,32.8z M63.7,40.5l-2.2-5.2l-2.2,5.2H63.7z"/>
	<path class="st0" d="M74.3,43.2l-1.7-3h-1.8v5.2h-1.7V32.8h4.2c2.9,0,4.1,1.7,4.1,3.7c0,1.9-1.1,3.3-3,3.6l1.5,2.6
		c0.8,1.3,1.4,1.7,2.4,1.7c0.2,0,0.5,0,0.7-0.1v1.2c-0.4,0.1-0.8,0.1-1.2,0.1C76.4,45.5,75.3,44.8,74.3,43.2z M73.3,38.7
		c1.9,0,2.5-1.1,2.5-2.3s-0.6-2.3-2.5-2.3h-2.5v4.6H73.3z"/>
	<path class="st0" d="M80.7,32.8h7.6v1.4h-5.9V38h4.9v1.4h-4.9v4.5h5.9v1.4h-7.6V32.8z"/>
	<path class="st0" d="M90.8,32.8h7.6v1.4h-5.9V38h4.9v1.4h-4.9v4.5h5.9v1.4h-7.6V32.8z"/>
	<path class="st0" d="M106.1,43.2l-1.7-3h-1.8v5.2h-1.7V32.8h4.2c2.9,0,4.1,1.7,4.1,3.7c0,1.9-1.1,3.3-3,3.6l1.5,2.6
		c0.8,1.3,1.4,1.7,2.4,1.7c0.2,0,0.5,0,0.7-0.1v1.2c-0.4,0.1-0.8,0.1-1.2,0.1C108.1,45.5,107,44.8,106.1,43.2z M105.1,38.7
		c1.9,0,2.5-1.1,2.5-2.3s-0.6-2.3-2.5-2.3h-2.5v4.6H105.1z"/>
	<path class="st0" d="M111.6,44.1l0.4-1.6c0.8,0.8,2,1.7,3.8,1.7c1.5,0,2.6-0.8,2.6-2.2c0-1.3-0.6-2-3-2.6c-2.4-0.6-3.5-1.9-3.5-3.7
		c0-1.8,1.5-3.3,4.1-3.3c1.4,0,2.7,0.5,3.4,1.1l-0.4,1.4c-0.8-0.6-2-1.1-3-1.1c-1.6,0-2.5,0.7-2.5,1.9c0,0.9,0.6,1.7,2.5,2.2
		c2.7,0.7,3.9,1.9,3.9,4c0,2.5-2.1,3.7-4.2,3.7C113.7,45.6,112.3,44.8,111.6,44.1z"/>
</g>
<g>
	<path class="st1" d="M27.7,6.4V4.1H12v2.3H3v11H12v14.9h15.6V17.4h8.8v-11H27.7z M18.2,8.8c0.4,0.2,1.3,1.1,2.1,1.7
		c0.8,0.5,1.1,0.7,1.8,1.1c0.7,0.4,1,0.6,1.1,0.7c0.2,0.1,0.4,0.3,0.1,0.4c-0.5,0.3-1.4-0.1-2.1-0.6c-0.4-0.3-0.8-0.6-1.1-0.8
		c-0.4-0.3-0.6-0.1-0.4,0.2c0.1,0.2,0.3,0.5,0.5,0.8c0.9,1.1,1.8,2.1,2.8,3.2c0.2,0.3,0.6,0.6,0.8,0.8c0.3,0.3-0.3,0.7-0.6,0.4
		c-0.4-0.4-0.8-0.7-0.9-0.8c-0.6-0.6-1.2-1.2-1.7-1.9c-0.1-0.1-0.5-0.5-0.6-0.7c-0.2-0.2-0.4,0-0.2,0.1c0.1,0.2,0.4,0.5,0.4,0.5
		c0.6,0.7,1.1,1.2,1.8,2.1c0.1,0.1,0.7,0.7,0.7,0.8c0.2,0.3-0.3,0.6-0.6,0.4c-0.2-0.2-0.5-0.4-0.7-0.6c-0.7-0.8-1.4-1.5-2.1-2.3
		c-0.1-0.1-0.5-0.6-0.6-0.7c-0.1-0.2-0.3,0-0.2,0.1c0.1,0.2,0.4,0.5,0.6,0.7c0.6,0.7,1.1,1.2,1.6,1.8c0.1,0.1,0.3,0.4,0.5,0.6
		c0.3,0.4-0.3,0.7-0.7,0.3c-0.2-0.2-0.5-0.5-0.6-0.6c-0.7-0.8-1.2-1.4-1.9-2.1c-0.1-0.1-0.2-0.3-0.4-0.5c-0.2-0.2-0.4,0-0.3,0.1
		c0.1,0.2,0.4,0.5,0.5,0.7c0.7,0.8,1.7,1.9,1.8,2.1c0.1,0.1-0.2,0.3-0.5,0.2c-0.2-0.1-0.4-0.3-0.6-0.4c-0.9-0.6-1.7-1.7-2.4-2.7
		c-0.2-0.3-1.2-1.9-1.5-2.8c0-0.1-0.2-0.7-0.2-0.9c0-0.2-0.1-0.3-0.3-0.1c-0.1,0.2-0.1,0.6,0,0.9c0,0.1,0.1,0.3,0.1,0.4
		c0,0.1-0.1,0.1-0.2,0.1c-0.1-0.1-0.3-0.2-0.3-0.2s-1.7-1.7-1.8-1.9C11.7,9.1,11.7,9,12.2,9c1.1,0,3.5-0.3,3.5-0.3
		C16.8,8.6,17.3,8.3,18.2,8.8 M14.4,6.9c0,0,2-0.3,1.7,1.1c0,0.2-0.1,0.2-0.4,0.3c0,0-1.3,0.1-2.4,0.2c-1,0.1-1.6,0.1-1.9,0.1
		c-0.3,0-0.5,0.2-0.4,0.4c0,0,0.4,0.4,0.4,0.4l1.5,1.6c0,0,0.5,0.5,0.6,0.6c0.1,0.1,0.2,0.2,0,0.3c-0.2,0-0.6,0.1-0.8,0.2
		c-3.1,0.6-4.4,0.3-5,0.1c-0.2,0-0.4-0.3-0.2-0.6C8.9,8.4,11.6,7.1,14.4,6.9 M24.7,29.3h-9.6v-3.8c0,0,0.3,0.3,1,0.4
		c2.5,0.2,5.2-0.5,5.9-0.6c0.1,0,0.2-0.1,0.4,0.1l2.3,2.2V29.3z M26.1,24.6c-0.1,0.2-0.2,0.5-0.3,0.7c-0.2,0.6-0.4,1-0.5,1.2
		c-0.1,0.2-0.2,0.5-0.3,0.6c-0.1,0.1-0.2,0.1-0.3,0c-0.4-0.2-1.2-1-1.6-1.6c0,0,0-0.2,0.1-0.2C24.4,24.9,25.7,24.5,26.1,24.6
		C26.1,24.5,26.1,24.5,26.1,24.6 M26.3,23.7c-0.1,0.3-2.7,1.2-3,1.1c0,0,0-0.1,0-0.1c0.1-0.2,0.6-0.6,0.6-0.7
		c-0.1-0.1-0.7,0.1-0.8,0.2c-0.8,0.3-2.3,0.9-3.7,1.1c-0.9,0.1-2.1,0.3-2.8,0.3c-0.1,0-0.8,0-0.8-0.2C15.5,25,16,25,16.3,24.9
		c0.7-0.1,1.3-0.2,2-0.4c0.1,0,0.5-0.1,0.6-0.2c0.1-0.1,0-0.2-0.2-0.2c-0.1,0-0.3,0.1-0.4,0.1c-0.7,0.1-1.6,0.3-2.4,0.5
		c-0.8,0.2-1.3,0.2-1.6,0.1c-0.3,0-0.4-0.4-0.1-0.5c0.2-0.1,0.6-0.1,1-0.2c0.8-0.2,1.6-0.3,2.4-0.5c0.3-0.1,0.4-0.1,0.5-0.2
		c0.2-0.1,0-0.3-0.2-0.2c-0.1,0-0.5,0.1-0.5,0.1c-0.6,0.1-1.6,0.3-2.5,0.5c-0.5,0.1-0.8,0.1-1.1,0.1c-0.3,0-0.4,0-0.6-0.1
		c-0.2-0.1-0.2-0.4,0-0.4c0.2-0.1,0.6-0.1,1.5-0.3c0.9-0.2,1.5-0.3,2.3-0.4c0.3-0.1,0.6-0.1,0.7-0.2c0.1-0.1,0-0.3-0.1-0.2
		c-0.1,0-0.3,0-0.6,0.1c-0.7,0.1-1.1,0.2-2.3,0.4c-0.9,0.2-1.5,0.1-1.7,0c-0.2-0.1-0.3-0.4,0-0.5c0.6-0.1,2.2-0.4,3.7-0.6
		c1.5-0.3,3-0.5,3-0.8c0-0.2-1.1-0.3-2-0.5c-0.8-0.2-1.6-0.6-1.6-1c0-0.1,0.1-0.2,0.3-0.1c0.5,0.1,2.1,0.5,4.4,0.7
		c1,0.1,1.8,0,2.2,0.4c0.1,0.1,0.9,0.9,1.2,1.2c0.7,0.6,1.3,1.1,2,1.8C26.2,23.5,26.3,23.5,26.3,23.7 M26.7,22.8
		c-0.3,0.2-0.3,0.1-0.5,0c-0.2-0.2-1.4-1.1-1.8-1.7c-0.1-0.2-0.1-0.2,0.2-0.2c0.6,0.1,2.1,0.4,2.4,1.1C27.1,22.2,27,22.6,26.7,22.8
		 M33.4,14.5h-8.8v6.1c-0.3-0.1-0.7-0.1-0.8-0.1c-0.3-0.1-0.2-0.4-1.1-0.8c-0.6-0.2-1.1-0.1-2-0.2c-1.2,0-2.1-0.1-3.1-0.3
		c-0.7-0.2-2.1-0.6-2.2,0c-0.1,0.5,0.4,0.8,0.7,1c0.5,0.3,1.2,0.5,1.7,0.6c0.4,0.1,0.2,0.2,0,0.2c-0.4,0.1-2,0.4-2.8,0.5v-7.1h-9
		V9.4h2.1c-1.8,2.1-1.9,3-1.3,3.1c0.5,0.1,1.8,0.3,3.5,0.2c1.5-0.1,3.1-0.5,3.5-0.6c0.6-0.2,0.7,0.1,0.7,0.2c1,1.7,1.9,3.1,3.4,4.3
		c0.6,0.5,1,0.8,2,1c1.9,0.3,3.7-0.3,4.1-1.1c0.2-0.4-0.1-0.7-0.4-1c-0.8-0.9-1.7-1.8-2.6-2.8c-0.1-0.1,0-0.2,0.2-0.1
		c0.4,0.3,0.9,0.6,1.8,0.5c0.5,0,0.8-0.3,0.8-0.6c0-0.5-0.8-0.9-1.2-1.1c-0.9-0.6-2.2-1.3-3-2.1h13.7V14.5z"/>
	<path class="st1" d="M48.2,9.4v5.1h7.1v2.9h-7.1v8.1h-3.9V10.8c0-2.1-0.2-3.4-1.5-3.9V6.4h12.8v3H48.2z"/>
	<path class="st1" d="M67.2,15.9c-0.2-0.3-0.7-1-2.4-1c-2,0.1-3.1,2-3.1,4.2v6.4h-3.5v-9.9c0-1.4-0.3-2.7-1.3-2.9v-0.4h4.5l0.1,2.2
		c0.7-1.6,2-2.5,3.4-2.5c1.3,0,2.2,0.5,2.4,0.8L67.2,15.9z"/>
	<path class="st1" d="M80.7,25.1c-0.7,0.4-1.4,0.7-2.4,0.7h0h-0.1l-0.1,0c-1.2,0-1.8-0.6-2.1-1.4c-0.8,1-2.2,1.4-3.3,1.4
		c-2.1,0-4.1-1.3-4.1-3.6c0-2.3,1.7-3.6,4.2-4.4c0.9-0.3,1.9-0.5,2.8-0.6v-0.4c0-1.4-0.7-2.1-1.9-2.1c-1.3,0-2.9,0.5-4.2,2v-3.1
		c1-1,3-1.7,4.7-1.7c1.5,0,2.9,0.4,3.7,1.3c0.8,0.8,1.3,1.9,1.3,3.2v6.2c0,0.4,0.1,0.5,0.3,0.6c0.1,0,0.2,0.1,0.2,0.1
		c0.3,0,0.7-0.1,1-0.4L80.7,25.1z M75.6,19.3c-2.4,0.3-3.6,1.1-3.6,2.5v0.1c0,0.8,0.7,1.4,1.8,1.4h0h0.1c0.7,0,1.3-0.3,1.7-0.9V19.3
		z"/>
	<path class="st1" d="M91.3,25.5v-8.4c0-1-0.3-2.4-2.1-2.4c-1.1,0-2.2,0.6-2.8,1.8v8.9h-3.5v-9.9c0-1.4-0.3-2.7-1.3-2.9v-0.4h4.6
		l0.1,1.5c1-1.3,2.4-1.8,4-1.8c2.4,0,4.6,1.3,4.6,5.1v8.4H91.3z"/>
	<path class="st1" d="M104.4,25.8c-4.1,0-7.2-2.9-7.2-6.9c0-4,3.1-6.9,7.2-6.9c1.7,0,2.8,0.3,3.7,0.9V16c-1-0.8-2-1.1-3.4-1.1
		c-2.2,0-3.9,1.5-3.9,4.1c0,2.5,1.7,4.1,3.9,4.1c1.4,0,2.5-0.4,3.4-1.1v3.1C107.2,25.5,106.1,25.8,104.4,25.8"/>
	<path class="st1" d="M111.5,25.5v-9.9c0-1.5-0.3-2.7-1.3-2.9v-0.4h4.8v13.2H111.5z M113.1,10.5c-1.1,0-2-0.9-2-1.9c0-1.1,0.9-2,2-2
		c1.1,0,2,0.9,2,2C115.1,9.6,114.2,10.5,113.1,10.5"/>
	<path class="st1" d="M126.8,21.5v0.1c-0.1,3.3-3.2,4.2-5.3,4.2c-1.6,0-2.9-0.4-3.9-1v-3.3c1.3,1.1,2.5,1.6,4,1.6
		c1.1,0,1.9-0.4,1.9-1.2c0-0.7-0.6-1.1-1.2-1.4l-2.2-1c-0.7-0.3-2.5-1.4-2.5-3.6c0-0.2,0-0.3,0-0.5c0.3-2.4,2.7-3.4,4.8-3.4
		c1.5,0,2.9,0.3,3.9,1V16c-1-0.8-2.1-1.3-3.6-1.3c-0.7,0-1.5,0.2-1.5,0.8v0.1c0,0.4,0.2,0.8,0.9,1.1l2.2,1
		C125.6,18.4,126.8,19.5,126.8,21.5L126.8,21.5z"/>
	<path class="st1" d="M135.6,25.8c-4.1,0-7.2-2.9-7.2-6.9c0-4,3.1-6.9,7.2-6.9c1.7,0,2.8,0.3,3.7,0.9V16c-1-0.8-2-1.1-3.4-1.1
		c-2.2,0-3.9,1.5-3.9,4.1c0,2.5,1.7,4.1,3.9,4.1c1.4,0,2.5-0.4,3.4-1.1v3.1C138.4,25.5,137.3,25.8,135.6,25.8"/>
	<path class="st1" d="M153.3,25.1c-0.7,0.4-1.4,0.7-2.4,0.7h0h-0.1l-0.1,0c-1.2,0-1.8-0.6-2.1-1.4c-0.8,1-2.2,1.4-3.3,1.4
		c-2.1,0-4.1-1.3-4.1-3.6c0-2.3,1.7-3.6,4.2-4.4c0.9-0.3,1.9-0.5,2.8-0.6v-0.4c0-1.4-0.7-2.1-1.9-2.1c-1.3,0-2.9,0.5-4.2,2v-3.1
		c1-1,3-1.7,4.7-1.7c1.5,0,2.9,0.4,3.7,1.3c0.8,0.8,1.3,1.9,1.3,3.2v6.2c0,0.4,0.1,0.5,0.3,0.6c0.1,0,0.2,0.1,0.2,0.1
		c0.3,0,0.7-0.1,1-0.4L153.3,25.1z M148.2,19.3c-2.4,0.3-3.6,1.1-3.6,2.5v0.1c0,0.8,0.7,1.4,1.8,1.4h0h0.1c0.7,0,1.3-0.3,1.7-0.9
		V19.3z"/>
	<path class="st1" d="M163.9,25.5v-8.4c0-1-0.3-2.4-2.1-2.4c-1.1,0-2.2,0.6-2.8,1.8v8.9h-3.5v-9.9c0-1.4-0.3-2.7-1.3-2.9v-0.4h4.6
		l0.1,1.5c1-1.3,2.4-1.8,4-1.8c2.4,0,4.6,1.3,4.6,5.1v8.4H163.9z"/>
</g>
<g>
	<path class="st0" d="M188.8,25.5h-2.1v-6h-7.2v6h-2.1V15.1c0-0.9,0-1.5-0.1-1.8c-0.1-0.5-0.4-0.8-0.8-1v-0.2h3v5.8h7.2v-5.8h2.1
		V25.5z"/>
	<path class="st0" d="M200.4,25.5h-8.1V15.1c0-0.9,0-1.5-0.1-1.8c-0.1-0.5-0.4-0.8-0.8-1v-0.2h8.8v1.6h-5.8v4.2h5.6v1.5h-5.6v4.4h6
		V25.5z"/>
	<path class="st0" d="M215.6,25.5h-2.1l-1.8-4H206l-1.7,4h-1.8l5.7-13.4h1.5L215.6,25.5z M211,19.9l-1.6-3.6
		c-0.3-0.7-0.5-1.3-0.6-1.6c-0.1,0.4-0.3,0.9-0.5,1.6l-1.5,3.7H211z"/>
	<path class="st0" d="M225.4,25.5h-7.7V15.1c0-0.9,0-1.5-0.1-1.8c-0.1-0.5-0.4-0.8-0.8-1v-0.2h3v11.8h5.6V25.5z"/>
	<path class="st0" d="M235.5,13.7h-4.3v11.8h-2.1V13.7h-4.3v-1.6h10.7V13.7z"/>
	<path class="st0" d="M249.8,25.5h-2.1v-6h-7.2v6h-2.1V15.1c0-0.9,0-1.5-0.1-1.8c-0.1-0.5-0.4-0.8-0.8-1v-0.2h3v5.8h7.2v-5.8h2.1
		V25.5z"/>
</g>
</svg>
