<?xml version="1.0" encoding="utf-8"?>
<!-- Generator: Adobe Illustrator 23.0.2, SVG Export Plug-In . SVG Version: 6.00 Build 0)  -->
<svg version="1.1" id="Layer_1" xmlns="http://www.w3.org/2000/svg" xmlns:xlink="http://www.w3.org/1999/xlink" x="0px" y="0px"
	 viewBox="0 0 172.3 48.9" style="enable-background:new 0 0 172.3 48.9;" xml:space="preserve">
<style type="text/css">
	.st0{fill:#5091CD;}
	.st1{fill:#574319;}
</style>
<g>
	<path class="st0" d="M42.9,16.7c0-5.6,4.2-9,9.2-9c2.2,0,4.6,0.7,6,1.8v2.4c-1.4-1.3-3.3-2.3-6-2.3c-4,0-6.8,2.8-6.8,7.1
		c0,4.3,2.8,7.1,6.8,7.1c2.7,0,4.6-1,6-2.3V24c-1.4,1.1-3.8,1.8-6,1.8C47.1,25.8,42.9,22.3,42.9,16.7z"/>
	<path class="st0" d="M67.1,8.1h1.5L76,25.4h-2.4l-2.1-4.8H64l-2.1,4.8h-2.3L67.1,8.1z M70.8,18.7l-3-7.1l-3,7.1H70.8z"/>
	<path class="st0" d="M85.4,22.4l-2.3-4.1h-2.5v7.2h-2.3V8.1H84c4,0,5.7,2.3,5.7,5.1c0,2.6-1.5,4.6-4.2,4.9l2.1,3.5
		c1,1.8,2,2.3,3.3,2.3c0.3,0,0.6,0,1-0.1v1.6c-0.5,0.1-1.1,0.2-1.6,0.2C88.2,25.6,86.6,24.6,85.4,22.4z M84,16.3
		c2.6,0,3.4-1.6,3.4-3.1S86.6,10,84,10h-3.4v6.3H84z"/>
	<path class="st0" d="M94.2,8.1h10.5V10h-8.2v5.3h6.7v1.9h-6.7v6.2h8.2v1.9H94.2V8.1z"/>
	<path class="st0" d="M108,8.1h10.5V10h-8.2v5.3h6.7v1.9h-6.7v6.2h8.2v1.9H108V8.1z"/>
	<path class="st0" d="M129,22.4l-2.3-4.1h-2.5v7.2h-2.3V8.1h5.7c4,0,5.7,2.3,5.7,5.1c0,2.6-1.5,4.6-4.2,4.9l2.1,3.5
		c1,1.8,2,2.3,3.3,2.3c0.3,0,0.6,0,1-0.1v1.6c-0.5,0.1-1.1,0.2-1.6,0.2C131.8,25.6,130.2,24.6,129,22.4z M127.6,16.3
		c2.6,0,3.4-1.6,3.4-3.1s-0.8-3.1-3.4-3.1h-3.4v6.3H127.6z"/>
	<path class="st0" d="M136.6,23.7l0.5-2.1c1,1.1,2.8,2.4,5.3,2.4c2,0,3.6-1.2,3.6-3c0-1.8-0.9-2.7-4.1-3.6c-3.3-0.9-4.8-2.6-4.8-5.1
		c0-2.5,2-4.5,5.6-4.5c2,0,3.8,0.7,4.7,1.5l-0.5,1.9c-1.2-0.8-2.8-1.5-4.2-1.5c-2.2,0-3.4,1-3.4,2.6c0,1.2,0.8,2.3,3.5,3
		c3.7,1,5.4,2.6,5.4,5.5c0,3.4-2.8,5.1-5.8,5.1C139.5,25.8,137.6,24.7,136.6,23.7z"/>
</g>
<path class="st1" d="M27.7,6.4V4.1H12v2.3H3v11H12v14.9h15.6V17.4h8.8v-11H27.7z M18.2,8.8c0.4,0.2,1.3,1.1,2.1,1.7
	c0.8,0.5,1.1,0.7,1.8,1.1c0.7,0.4,1,0.6,1.1,0.7c0.2,0.1,0.4,0.3,0.1,0.4c-0.5,0.3-1.4-0.1-2.1-0.6c-0.4-0.3-0.8-0.6-1.1-0.8
	c-0.4-0.3-0.6-0.1-0.4,0.2c0.1,0.2,0.3,0.5,0.5,0.8c0.9,1.1,1.8,2.1,2.8,3.2c0.2,0.3,0.6,0.6,0.8,0.8c0.3,0.3-0.3,0.7-0.6,0.4
	c-0.4-0.4-0.8-0.7-0.9-0.8c-0.6-0.6-1.2-1.2-1.7-1.9c-0.1-0.1-0.5-0.5-0.6-0.7c-0.2-0.2-0.4,0-0.2,0.1c0.1,0.2,0.4,0.5,0.4,0.5
	c0.6,0.7,1.1,1.2,1.8,2.1c0.1,0.1,0.7,0.7,0.7,0.8c0.2,0.3-0.3,0.6-0.6,0.4c-0.2-0.2-0.5-0.4-0.7-0.6c-0.7-0.8-1.4-1.5-2.1-2.3
	c-0.1-0.1-0.5-0.6-0.6-0.7c-0.1-0.2-0.3,0-0.2,0.1c0.1,0.2,0.4,0.5,0.6,0.7c0.6,0.7,1.1,1.2,1.6,1.8c0.1,0.1,0.3,0.4,0.5,0.6
	c0.3,0.4-0.3,0.7-0.7,0.3c-0.2-0.2-0.5-0.5-0.6-0.6c-0.7-0.8-1.2-1.4-1.9-2.1c-0.1-0.1-0.2-0.3-0.4-0.5c-0.2-0.2-0.4,0-0.3,0.1
	c0.1,0.2,0.4,0.5,0.5,0.7c0.7,0.8,1.7,1.9,1.8,2.1c0.1,0.1-0.2,0.3-0.5,0.2c-0.2-0.1-0.4-0.3-0.6-0.4c-0.9-0.6-1.7-1.7-2.4-2.7
	c-0.2-0.3-1.2-1.9-1.5-2.8c0-0.1-0.2-0.7-0.2-0.9c0-0.2-0.1-0.3-0.3-0.1c-0.1,0.2-0.1,0.6,0,0.9c0,0.1,0.1,0.3,0.1,0.4
	c0,0.1-0.1,0.1-0.2,0.1c-0.1-0.1-0.3-0.2-0.3-0.2s-1.7-1.7-1.8-1.9C11.7,9.1,11.7,9,12.2,9c1.1,0,3.5-0.3,3.5-0.3
	C16.8,8.6,17.3,8.3,18.2,8.8 M14.4,6.9c0,0,2-0.3,1.7,1.1c0,0.2-0.1,0.2-0.4,0.3c0,0-1.3,0.1-2.4,0.2c-1,0.1-1.6,0.1-1.9,0.1
	c-0.3,0-0.5,0.2-0.4,0.4c0,0,0.4,0.4,0.4,0.4l1.5,1.6c0,0,0.5,0.5,0.6,0.6c0.1,0.1,0.2,0.2,0,0.3c-0.2,0-0.6,0.1-0.8,0.2
	c-3.1,0.6-4.4,0.3-5,0.1c-0.2,0-0.4-0.3-0.2-0.6C8.9,8.4,11.6,7.1,14.4,6.9 M24.7,29.3h-9.6v-3.8c0,0,0.3,0.3,1,0.4
	c2.5,0.2,5.2-0.5,5.9-0.6c0.1,0,0.2-0.1,0.4,0.1l2.3,2.2V29.3z M26.1,24.6c-0.1,0.2-0.2,0.5-0.3,0.7c-0.2,0.6-0.4,1-0.5,1.2
	c-0.1,0.2-0.2,0.5-0.3,0.6c-0.1,0.1-0.2,0.1-0.3,0c-0.4-0.2-1.2-1-1.6-1.6c0,0,0-0.2,0.1-0.2C24.4,24.9,25.7,24.5,26.1,24.6
	C26.1,24.5,26.1,24.5,26.1,24.6 M26.3,23.7c-0.1,0.3-2.7,1.2-3,1.1c0,0,0-0.1,0-0.1c0.1-0.2,0.6-0.6,0.6-0.7
	c-0.1-0.1-0.7,0.1-0.8,0.2c-0.8,0.3-2.3,0.9-3.7,1.1c-0.9,0.1-2.1,0.3-2.8,0.3c-0.1,0-0.8,0-0.8-0.2C15.5,25,16,25,16.3,24.9
	c0.7-0.1,1.3-0.2,2-0.4c0.1,0,0.5-0.1,0.6-0.2c0.1-0.1,0-0.2-0.2-0.2c-0.1,0-0.3,0.1-0.4,0.1c-0.7,0.1-1.6,0.3-2.4,0.5
	c-0.8,0.2-1.3,0.2-1.6,0.1c-0.3,0-0.4-0.4-0.1-0.5c0.2-0.1,0.6-0.1,1-0.2c0.8-0.2,1.6-0.3,2.4-0.5c0.3-0.1,0.4-0.1,0.5-0.2
	c0.2-0.1,0-0.3-0.2-0.2c-0.1,0-0.5,0.1-0.5,0.1c-0.6,0.1-1.6,0.3-2.5,0.5c-0.5,0.1-0.8,0.1-1.1,0.1c-0.3,0-0.4,0-0.6-0.1
	c-0.2-0.1-0.2-0.4,0-0.4c0.2-0.1,0.6-0.1,1.5-0.3c0.9-0.2,1.5-0.3,2.3-0.4c0.3-0.1,0.6-0.1,0.7-0.2c0.1-0.1,0-0.3-0.1-0.2
	c-0.1,0-0.3,0-0.6,0.1c-0.7,0.1-1.1,0.2-2.3,0.4c-0.9,0.2-1.5,0.1-1.7,0c-0.2-0.1-0.3-0.4,0-0.5c0.6-0.1,2.2-0.4,3.7-0.6
	c1.5-0.3,3-0.5,3-0.8c0-0.2-1.1-0.3-2-0.5c-0.8-0.2-1.6-0.6-1.6-1c0-0.1,0.1-0.2,0.3-0.1c0.5,0.1,2.1,0.5,4.4,0.7
	c1,0.1,1.8,0,2.2,0.4c0.1,0.1,0.9,0.9,1.2,1.2c0.7,0.6,1.3,1.1,2,1.8C26.2,23.5,26.3,23.5,26.3,23.7 M26.7,22.8
	c-0.3,0.2-0.3,0.1-0.5,0c-0.2-0.2-1.4-1.1-1.8-1.7c-0.1-0.2-0.1-0.2,0.2-0.2c0.6,0.1,2.1,0.4,2.4,1.1C27.1,22.2,27,22.6,26.7,22.8
	 M33.4,14.5h-8.8v6.1c-0.3-0.1-0.7-0.1-0.8-0.1c-0.3-0.1-0.2-0.4-1.1-0.8c-0.6-0.2-1.1-0.1-2-0.2c-1.2,0-2.1-0.1-3.1-0.3
	c-0.7-0.2-2.1-0.6-2.2,0c-0.1,0.5,0.4,0.8,0.7,1c0.5,0.3,1.2,0.5,1.7,0.6c0.4,0.1,0.2,0.2,0,0.2c-0.4,0.1-2,0.4-2.8,0.5v-7.1h-9V9.4
	h2.1c-1.8,2.1-1.9,3-1.3,3.1c0.5,0.1,1.8,0.3,3.5,0.2c1.5-0.1,3.1-0.5,3.5-0.6c0.6-0.2,0.7,0.1,0.7,0.2c1,1.7,1.9,3.1,3.4,4.3
	c0.6,0.5,1,0.8,2,1c1.9,0.3,3.7-0.3,4.1-1.1c0.2-0.4-0.1-0.7-0.4-1c-0.8-0.9-1.7-1.8-2.6-2.8c-0.1-0.1,0-0.2,0.2-0.1
	c0.4,0.3,0.9,0.6,1.8,0.5c0.5,0,0.8-0.3,0.8-0.6c0-0.5-0.8-0.9-1.2-1.1c-0.9-0.6-2.2-1.3-3-2.1h13.7V14.5z"/>
</svg>
