<?xml version="1.0" encoding="utf-8"?>
<!-- Generator: Adobe Illustrator 23.0.3, SVG Export Plug-In . SVG Version: 6.00 Build 0)  -->
<svg version="1.1" id="Layer_1" xmlns="http://www.w3.org/2000/svg" xmlns:xlink="http://www.w3.org/1999/xlink" x="0px" y="0px"
	 viewBox="0 0 87 7" style="enable-background:new 0 0 87 7;" xml:space="preserve">
<path d="M-190,33.4l-7.4-2.3c-0.4-0.1-0.8-0.1-1.2,0l-7.4,2.3c-0.6,0.2-0.6,1,0,1.2l1.3,0.4c-0.3,0.4-0.5,0.8-0.5,1.2
	c-0.3,0.1-0.4,0.4-0.4,0.7c0,0.3,0.2,0.5,0.4,0.7l-0.7,3.1c-0.1,0.3,0.1,0.5,0.4,0.5h1.5c0.3,0,0.5-0.3,0.4-0.5l-0.7-3.1
	c0.2-0.2,0.4-0.4,0.4-0.7c0-0.3-0.2-0.6-0.4-0.7c0-0.4,0.2-0.8,0.5-1l5.2,1.6c0.2,0.1,0.7,0.2,1.2,0l7.4-2.3
	C-189.3,34.4-189.3,33.6-190,33.4L-190,33.4z M-197.1,37.7c-0.8,0.2-1.4,0.1-1.7,0l-3.9-1.2l-0.4,3c0,0.9,2.3,1.7,5.1,1.7
	s5.1-0.8,5.1-1.7l-0.4-3L-197.1,37.7z"/>
</svg>
