 <?xml version="1.0" encoding="utf-8"?>
<!-- Generator: Adobe Illustrator 23.0.3, SVG Export Plug-In . SVG Version: 6.00 Build 0)  -->
<svg version="1.2" baseProfile="tiny" id="Layer_1" xmlns="http://www.w3.org/2000/svg" xmlns:xlink="http://www.w3.org/1999/xlink"
	 x="0px" y="0px" width="17.6px" height="11.1px" viewBox="0 0 17.6 11.1" xml:space="preserve" style="height:16px !important">
<path d="M16.7,2.8L9.3,0.5c-0.4-0.1-0.8-0.1-1.2,0L0.7,2.8C0.1,3,0.1,3.8,0.7,4L2,4.4C1.7,4.8,1.5,5.2,1.5,5.6
	C1.2,5.7,1.1,6,1.1,6.3S1.3,6.8,1.5,7l-0.7,3.1c-0.1,0.3,0.1,0.5,0.4,0.5h1.5c0.3,0,0.5-0.3,0.4-0.5L2.4,7c0.2-0.2,0.4-0.4,0.4-0.7
	S2.6,5.7,2.4,5.6c0-0.4,0.2-0.8,0.5-1l5.2,1.6c0.2,0.1,0.7,0.2,1.2,0l7.4-2.3C17.4,3.8,17.4,3,16.7,2.8L16.7,2.8z M9.6,7.1
	c-0.8,0.2-1.4,0.1-1.7,0L4,5.9l-0.4,3c0,0.9,2.3,1.7,5.1,1.7s5.1-0.8,5.1-1.7l-0.4-3L9.6,7.1z"/>
</svg>
