<?xml version="1.0" encoding="utf-8"?>
<!-- Generator: Adobe Illustrator 23.0.3, SVG Export Plug-In . SVG Version: 6.00 Build 0)  -->
<svg version="1.1" id="Layer_1" xmlns="http://www.w3.org/2000/svg" xmlns:xlink="http://www.w3.org/1999/xlink" x="0px" y="0px"
	 width="15px" height="20px" viewBox="0 0 12 17" enable-background="new 0 0 12 17" xml:space="preserve">
<path d="M11.9,6.6c0,1.1-0.3,2-0.9,2.9c-0.6,1-1.2,1.9-1.9,2.8c-0.8,1.2-1.7,2.4-2.5,3.6c-0.2,0.3-0.5,0.4-0.8,0.3
	c-0.2-0.1-0.3-0.2-0.4-0.3c-0.7-1-1.4-1.9-2-2.9c-0.6-0.9-1.3-1.8-1.9-2.7c-0.3-0.5-0.6-1-0.9-1.6C0.3,7.9,0.2,7.1,0.2,6.3
	c0.1-1.5,0.6-2.8,1.7-3.9C2.9,1.5,4,0.9,5.3,0.7c1.9-0.2,3.6,0.4,4.9,1.7c0.9,0.9,1.4,1.9,1.6,3.2C11.9,5.9,11.9,6.2,11.9,6.6z
	 M6,8.9c1.3,0,2.4-1.1,2.4-2.4c0-1.3-1.1-2.4-2.4-2.4c-1.3,0-2.4,1.1-2.4,2.4C3.6,7.8,4.7,8.9,6,8.9z"/>
</svg>
